<svg width="12.599609" height="17.600098" viewBox="0 0 12.5996 17.6001" fill="none" xmlns="http://www.w3.org/2000/svg" xmlns:xlink="http://www.w3.org/1999/xlink">
	<desc>
			Created with Pixso.
	</desc>
	<defs/>
	<path id="Vector (Stroke)" d="M3.15 1.26C3.99 0.45 5.12 0 6.29 0C7.47 0 8.61 0.45 9.44 1.26C10.29 2.08 10.76 3.19 10.76 4.35C10.76 5.51 10.29 6.62 9.44 7.44C8.61 8.25 7.47 8.71 6.29 8.71C5.12 8.71 3.99 8.25 3.15 7.44C2.31 6.62 1.83 5.51 1.83 4.35C1.83 3.19 2.31 2.08 3.15 1.26ZM6.29 1.6C5.53 1.6 4.79 1.89 4.26 2.41C3.72 2.93 3.43 3.63 3.43 4.35C3.43 5.07 3.72 5.77 4.26 6.29C4.79 6.81 5.53 7.11 6.29 7.11C7.06 7.11 7.79 6.81 8.33 6.29C8.87 5.77 9.16 5.07 9.16 4.35C9.16 3.63 8.87 2.93 8.33 2.41C7.79 1.89 7.06 1.6 6.29 1.6ZM4.46 12.26C3.69 12.26 2.96 12.56 2.43 13.08C1.89 13.6 1.59 14.29 1.59 15.02L1.59 16.79C1.59 17.24 1.24 17.6 0.79 17.6C0.35 17.6 0 17.24 0 16.79L0 15.02C0 13.85 0.47 12.74 1.31 11.93C2.15 11.11 3.29 10.66 4.46 10.66L8.13 10.66C9.31 10.66 10.44 11.11 11.28 11.93C12.12 12.74 12.59 13.85 12.59 15.02L12.59 16.79C12.59 17.24 12.24 17.6 11.79 17.6C11.35 17.6 11 17.24 11 16.79L11 15.02C11 14.29 10.7 13.6 10.16 13.08C9.63 12.56 8.9 12.26 8.13 12.26L4.46 12.26Z" fill="#FFFFFF" fill-opacity="1.000000" fill-rule="evenodd"/>
</svg>
