<svg viewBox="0 0 51.5 51.5" xmlns="http://www.w3.org/2000/svg" xmlns:xlink="http://www.w3.org/1999/xlink" width="51.500000" height="51.500000" fill="none" customFrame="#000000">
	<path id="Vector" d="M2.14699 2.14699C2.72132 1.57266 3.50027 1.25 4.3125 1.25L47.1875 1.25C47.9997 1.25 48.7787 1.57266 49.353 2.14699C49.9273 2.72132 50.25 3.50027 50.25 4.3125L50.25 47.1875C50.25 47.9997 49.9273 48.7787 49.353 49.353C48.7787 49.9273 47.9997 50.25 47.1875 50.25L4.3125 50.25C3.50027 50.25 2.72132 49.9273 2.14699 49.353C1.57266 48.7787 1.25 47.9997 1.25 47.1875L1.25 4.3125C1.25 3.50027 1.57266 2.72132 2.14699 2.14699ZM1.25 13.5L50.25 13.5M13.5 1.25L13.5 13.5M18.0938 33.4062L22.6875 38L31.875 28.8125" fill-rule="evenodd" stroke="rgb(18,18,20)" stroke-linecap="round" stroke-linejoin="round" stroke-width="2.5" />
</svg>
