<svg width="16.599609" height="19.600098" viewBox="0 0 16.5996 19.6001" fill="none" xmlns="http://www.w3.org/2000/svg" xmlns:xlink="http://www.w3.org/1999/xlink">
	<desc>
			Created with Pixso.
	</desc>
	<defs/>
	<path d="M8.29 1.6C7.73 1.6 7.19 1.82 6.79 2.23C6.39 2.64 6.16 3.21 6.16 3.79L6.16 5L10.43 5L10.43 3.79C10.43 3.21 10.2 2.64 9.8 2.23C9.4 1.82 8.85 1.6 8.29 1.6ZM12.03 5L12.03 3.79C12.03 2.79 11.64 1.83 10.94 1.11C10.24 0.4 9.29 0 8.29 0C7.3 0 6.35 0.4 5.65 1.11C4.95 1.83 4.56 2.79 4.56 3.79L4.56 5L2.75 5L12.03 5ZM4.56 6.6L2.75 6.6C2.59 6.6 2.42 6.63 2.27 6.7C2.12 6.77 1.99 6.88 1.88 7.01C1.77 7.14 1.69 7.29 1.64 7.46C1.59 7.63 1.58 7.81 1.61 7.98L2.84 16.13C2.91 16.66 3.17 17.13 3.56 17.47C3.95 17.81 4.44 18 4.94 18L11.64 18C12.15 18 12.64 17.81 13.03 17.47C13.42 17.13 13.67 16.66 13.75 16.13L14.98 7.98C15.01 7.81 15 7.63 14.95 7.46C14.9 7.29 14.82 7.14 14.71 7.01C14.6 6.88 14.47 6.77 14.32 6.7C14.17 6.63 14 6.6 13.84 6.6L12.03 6.6L12.03 8.79C12.03 9.24 11.67 9.6 11.23 9.6C10.79 9.6 10.43 9.24 10.43 8.79L10.43 6.6L6.16 6.6L6.16 8.79C6.16 9.24 5.8 9.6 5.36 9.6C4.92 9.6 4.56 9.24 4.56 8.79L4.56 6.6ZM12.03 5L13.84 5C14.24 5 14.63 5.08 15 5.25C15.36 5.42 15.68 5.67 15.94 5.98C16.19 6.29 16.38 6.64 16.49 7.03C16.6 7.42 16.62 7.82 16.56 8.22L15.34 16.37C15.2 17.26 14.76 18.08 14.08 18.67C13.41 19.27 12.54 19.6 11.64 19.6L4.94 19.6C4.05 19.6 3.18 19.27 2.51 18.67C1.83 18.08 1.39 17.26 1.25 16.37L0.03 8.22C-0.03 7.82 -0.01 7.42 0.1 7.03C0.21 6.64 0.4 6.29 0.65 5.98C0.91 5.67 1.23 5.42 1.59 5.25C1.96 5.08 2.35 5 2.75 5L12.03 5Z" fill="#FFFFFF" fill-opacity="1.000000" fill-rule="evenodd"/>
</svg>
