<svg width="17.599609" height="17.600098" viewBox="0 0 17.5996 17.6001" fill="none" xmlns="http://www.w3.org/2000/svg" xmlns:xlink="http://www.w3.org/1999/xlink">
	<desc>
			Created with Pixso.
	</desc>
	<defs/>
	<path id="Vector (Stroke)" d="M5.1 0.62C6.1 0.21 7.18 0 8.26 0C9.35 0 10.42 0.21 11.43 0.62C12.43 1.04 13.34 1.65 14.11 2.42C14.87 3.18 15.48 4.1 15.9 5.1C16.31 6.1 16.53 7.18 16.53 8.26C16.53 9.35 16.31 10.42 15.9 11.43C15.59 12.18 15.16 12.88 14.65 13.51L17.36 16.23C17.67 16.54 17.67 17.05 17.36 17.36C17.05 17.67 16.54 17.67 16.23 17.36L13.51 14.65C12.88 15.16 12.18 15.59 11.43 15.9C10.42 16.31 9.35 16.53 8.26 16.53C7.18 16.53 6.1 16.31 5.1 15.9C4.1 15.48 3.18 14.87 2.42 14.11C1.65 13.34 1.04 12.43 0.62 11.43C0.21 10.42 0 9.35 0 8.26C0 7.18 0.21 6.1 0.62 5.1C1.04 4.1 1.65 3.18 2.42 2.42C3.18 1.65 4.1 1.04 5.1 0.62ZM8.26 1.6C7.39 1.6 6.52 1.77 5.71 2.1C4.9 2.44 4.17 2.93 3.55 3.55C2.93 4.17 2.44 4.9 2.1 5.71C1.77 6.52 1.59 7.39 1.59 8.26C1.59 9.14 1.77 10 2.1 10.81C2.44 11.62 2.93 12.36 3.55 12.98C4.17 13.59 4.9 14.09 5.71 14.42C6.52 14.76 7.39 14.93 8.26 14.93C9.14 14.93 10 14.76 10.81 14.42C11.62 14.09 12.36 13.59 12.98 12.98C13.59 12.36 14.09 11.62 14.42 10.81C14.76 10 14.93 9.14 14.93 8.26C14.93 7.39 14.76 6.52 14.42 5.71C14.09 4.9 13.59 4.17 12.98 3.55C12.36 2.93 11.62 2.44 10.81 2.1C10 1.77 9.14 1.6 8.26 1.6Z" fill="#FFFFFF" fill-opacity="1.000000" fill-rule="evenodd"/>
</svg>
