<svg width="18.600586" height="17.600098" viewBox="0 0 18.6006 17.6001" fill="none" xmlns="http://www.w3.org/2000/svg" xmlns:xlink="http://www.w3.org/1999/xlink">
	<desc>
			Created with Pixso.
	</desc>
	<defs/>
	<path id="Vector (Stroke)" d="M9.29 0C9.6 0 9.88 0.17 10.01 0.44L12.45 5.33L17.91 6.11C18.21 6.16 18.46 6.37 18.56 6.66C18.65 6.95 18.57 7.27 18.35 7.48L14.4 11.29L15.33 16.66C15.38 16.96 15.26 17.26 15.01 17.44C14.77 17.62 14.44 17.64 14.17 17.5L9.3 14.96L4.42 17.5C4.15 17.64 3.82 17.62 3.58 17.44C3.33 17.26 3.21 16.96 3.26 16.66L4.19 11.29L0.24 7.48C0.02 7.27 -0.06 6.95 0.03 6.66C0.13 6.37 0.38 6.16 0.68 6.11L6.14 5.33L8.58 0.44C8.71 0.17 8.99 0 9.29 0ZM9.29 2.59L7.38 6.42C7.27 6.65 7.04 6.82 6.78 6.85L2.53 7.46L5.61 10.43C5.8 10.61 5.88 10.88 5.84 11.14L5.11 15.34L8.93 13.35C9.16 13.23 9.44 13.23 9.67 13.35L13.48 15.34L12.75 11.14C12.71 10.88 12.79 10.61 12.98 10.43L16.06 7.46L11.81 6.85C11.55 6.82 11.32 6.65 11.21 6.42L9.29 2.59Z" fill="#FFFFFF" fill-opacity="1.000000" fill-rule="evenodd"/>
</svg>
