<svg width="30.000000" height="30.000000" viewBox="0 0 30 30" fill="none" xmlns="http://www.w3.org/2000/svg" xmlns:xlink="http://www.w3.org/1999/xlink">
	<desc>
			Created with Pixso.
	</desc>
	<defs/>
	<path id="Vector" d="M15 0C12.03 0 9.13 0.87 6.66 2.52C4.2 4.17 2.27 6.51 1.14 9.25C0 12 -0.3 15.01 0.28 17.92C0.86 20.83 2.29 23.5 4.39 25.6C6.49 27.7 9.16 29.13 12.07 29.71C14.98 30.29 17.99 29.99 20.74 28.85C23.48 27.72 25.82 25.8 27.47 23.33C29.12 20.86 30 17.96 30 15C30 13.03 29.61 11.07 28.85 9.25C28.1 7.43 27 5.78 25.6 4.39C24.21 3 22.56 1.89 20.74 1.14C18.92 0.38 16.96 -0.01 15 0ZM19.76 22.72C19.71 22.86 19.62 22.99 19.51 23.09C19.41 23.2 19.27 23.28 19.13 23.33C18.99 23.38 18.84 23.4 18.69 23.38C18.54 23.37 18.39 23.33 18.26 23.25L14.19 20.09L11.58 22.5C11.52 22.54 11.44 22.57 11.37 22.58C11.29 22.59 11.22 22.58 11.15 22.56L11.65 18.07L11.66 18.09L11.68 18C11.68 18 19 11.33 19.3 11.04C19.6 10.76 19.5 10.7 19.5 10.7C19.52 10.35 18.96 10.7 18.96 10.7L9.25 16.94L5.21 15.57C5.21 15.57 4.59 15.34 4.53 14.85C4.47 14.37 5.23 14.1 5.23 14.1L21.31 7.72C21.31 7.72 22.63 7.13 22.63 8.1L19.76 22.72Z" fill="#22A6E6" fill-opacity="1.000000" fill-rule="nonzero"/>
</svg>
