<svg width="30.000000" height="30.000000" viewBox="0 0 30 30" fill="none" xmlns="http://www.w3.org/2000/svg" xmlns:xlink="http://www.w3.org/1999/xlink">
	<desc>
			Created with Pixso.
	</desc>
	<defs/>
	<path id="Vector" d="M15 0L14.99 0C6.72 0 0 6.72 0 15C-0.01 18.15 0.99 21.23 2.85 23.79L0.98 29.36L6.75 27.52C9.19 29.14 12.06 30 15 30C23.27 30 30 23.27 30 15C30 6.72 23.27 0 15 0ZM23.73 21.18C23.37 22.2 21.93 23.05 20.78 23.29C20 23.46 18.98 23.59 15.53 22.16C11.12 20.34 8.28 15.86 8.06 15.57C7.85 15.28 6.28 13.2 6.28 11.04C6.28 8.89 7.37 7.84 7.81 7.39C8.18 7.02 8.77 6.86 9.35 6.86C9.53 6.86 9.7 6.86 9.85 6.87C10.29 6.89 10.51 6.92 10.8 7.61C11.16 8.48 12.05 10.64 12.15 10.86C12.26 11.08 12.36 11.38 12.21 11.67C12.07 11.97 11.95 12.1 11.73 12.36C11.51 12.61 11.3 12.81 11.08 13.08C10.87 13.32 10.65 13.58 10.9 14.02C11.16 14.45 12.04 15.89 13.33 17.04C15.01 18.53 16.37 19.01 16.85 19.21C17.21 19.36 17.64 19.32 17.91 19.04C18.24 18.68 18.66 18.08 19.08 17.49C19.38 17.07 19.76 17.01 20.16 17.16C20.56 17.31 22.71 18.36 23.15 18.58C23.59 18.81 23.88 18.91 23.98 19.1C24.09 19.28 24.09 20.15 23.73 21.18Z" fill="#55CD62" fill-opacity="1.000000" fill-rule="nonzero"/>
</svg>
